<svg width="267" height="74" viewBox="0 0 267 74" fill="none" xmlns="http://www.w3.org/2000/svg">
<path d="M207.22 73.5381C207.22 63.486 215.327 55.3486 225.341 55.3487C215.327 55.3486 207.22 48.1686 207.22 26.0062C207.22 48.2643 199.113 55.3486 189.098 55.3486C199.113 55.3486 207.22 63.4382 207.22 73.5381Z" fill="#FFD46E"/>
<path d="M55.3227 51.415C58.7413 51.415 61.7861 50.6536 64.4569 49.1309C67.1277 47.6082 69.2109 45.4957 70.7066 42.7935C72.2022 40.0912 72.9501 37.0244 72.9501 33.593C72.9501 30.1187 72.1916 27.0304 70.6745 24.3281C69.1575 21.6259 67.0636 19.5134 64.3928 17.9907C61.722 16.468 58.6986 15.7067 55.3227 15.7067C51.9038 15.7067 48.8487 16.468 46.1566 17.9907C43.4645 19.5134 41.3704 21.6259 39.8749 24.3281C38.3793 27.0304 37.6316 30.1187 37.6316 33.593C37.6316 37.0244 38.3793 40.0912 39.8749 42.7935C41.3704 45.4957 43.4645 47.6082 46.1566 49.1309C48.8487 50.6536 51.9038 51.415 55.3227 51.415ZM55.3227 45.6244C53.1436 45.6244 51.1885 45.1097 49.4574 44.0803C47.727 43.0508 46.3698 41.6247 45.3872 39.8017C44.4046 37.9788 43.9133 35.9092 43.9133 33.593C43.9133 31.2768 44.4046 29.1965 45.3872 27.3521C46.3698 25.5077 47.727 24.0708 49.4574 23.0414C51.1885 22.0119 53.1436 21.4972 55.3227 21.4972C57.5021 21.4972 59.4572 22.0119 61.1878 23.0414C62.9185 24.0708 64.2646 25.5077 65.226 27.3521C66.1875 29.1965 66.6683 31.2768 66.6683 33.593C66.6683 35.9092 66.1875 37.9788 65.226 39.8017C64.2646 41.6247 62.9185 43.0508 61.1878 44.0803C59.4572 45.1097 57.5021 45.6244 55.3227 45.6244ZM99.0599 15.6423C96.9232 15.6423 94.9148 16.0177 93.0345 16.7683C91.1543 17.5189 89.5305 18.5805 88.163 19.9531V19.2453C88.163 18.2588 87.8639 17.4653 87.2656 16.8648C86.6673 16.2643 85.8768 15.964 84.8939 15.964C83.9538 15.964 83.1739 16.2643 82.5543 16.8648C81.9347 17.4653 81.6248 18.2588 81.6248 19.2453V47.9407C81.6248 48.8843 81.9347 49.6671 82.5543 50.289C83.1739 50.9109 83.9538 51.2219 84.8939 51.2219C85.8768 51.2219 86.6673 50.911 87.2656 50.289C87.8639 49.6671 88.163 48.8843 88.163 47.9407V29.797C88.163 28.2529 88.5796 26.8588 89.4129 25.6149C90.2462 24.371 91.4 23.3845 92.8743 22.6553C94.3486 21.9262 95.9831 21.5616 97.7779 21.5616C100.855 21.5616 103.322 22.4515 105.181 24.2316C107.04 26.0117 107.97 28.6388 107.97 32.1132V47.9407C107.97 48.8843 108.279 49.6671 108.899 50.289C109.519 50.911 110.299 51.2219 111.239 51.2219C112.179 51.2219 112.959 50.911 113.578 50.289C114.198 49.6671 114.508 48.8843 114.508 47.9407V32.1132C114.508 28.6388 113.846 25.6685 112.521 23.2022C111.196 20.7359 109.359 18.8593 107.008 17.5725C104.658 16.2857 102.008 15.6423 99.0599 15.6423ZM154.527 0.908691C153.587 0.908691 152.807 1.20891 152.188 1.80943C151.568 2.40994 151.258 3.20345 151.258 4.18994V21.5616C149.763 19.7172 147.946 18.2803 145.81 17.2508C143.673 16.2214 141.366 15.7067 138.887 15.7067C135.81 15.7067 133.022 16.4788 130.522 18.0229C128.022 19.567 126.056 21.701 124.625 24.4247C123.193 27.1484 122.478 30.183 122.478 33.5286C122.478 36.8743 123.247 39.909 124.785 42.6326C126.324 45.3563 128.449 47.501 131.163 49.0666C133.877 50.6322 136.879 51.415 140.169 51.415C143.459 51.415 146.44 50.6322 149.111 49.0666C151.782 47.501 153.897 45.3563 155.457 42.6326C157.016 39.909 157.796 36.8743 157.796 33.5287V4.18994C157.796 3.20345 157.497 2.40994 156.899 1.80943C156.301 1.20891 155.51 0.908691 154.527 0.908691ZM140.169 45.6244C138.032 45.6244 136.099 45.099 134.368 44.0481C132.637 42.9972 131.27 41.5496 130.266 39.7052C129.261 37.8608 128.759 35.802 128.759 33.5286C128.759 31.2553 129.261 29.2072 130.266 27.3842C131.27 25.5613 132.637 24.1244 134.368 23.0735C136.099 22.0227 138.032 21.4972 140.169 21.4972C142.306 21.4972 144.239 22.0227 145.97 23.0735C147.701 24.1244 149.057 25.5613 150.04 27.3842C151.023 29.2072 151.515 31.2553 151.515 33.5287C151.515 35.802 151.023 37.8608 150.04 39.7052C149.057 41.5496 147.701 42.9972 145.97 44.0481C144.239 45.099 142.306 45.6244 140.169 45.6244ZM184.163 51.415C187.581 51.415 190.626 50.6536 193.297 49.1309C195.968 47.6082 198.051 45.4957 199.546 42.7935C201.042 40.0913 201.79 37.0244 201.79 33.593C201.79 30.1187 201.031 27.0304 199.514 24.3281C197.997 21.6259 195.903 19.5134 193.233 17.9907C190.562 16.468 187.539 15.7067 184.163 15.7067C180.744 15.7067 177.689 16.468 174.996 17.9907C172.304 19.5134 170.21 21.6259 168.715 24.3281C167.219 27.0304 166.471 30.1187 166.471 33.593C166.471 37.0244 167.219 40.0913 168.715 42.7935C170.21 45.4957 172.304 47.6082 174.996 49.1309C177.689 50.6536 180.744 51.415 184.163 51.415ZM184.163 45.6244C181.983 45.6244 180.028 45.1097 178.298 44.0803C176.567 43.0509 175.21 41.6247 174.227 39.8017C173.244 37.9788 172.753 35.9092 172.753 33.593C172.753 31.2768 173.244 29.1965 174.227 27.3521C175.21 25.5077 176.567 24.0708 178.298 23.0414C180.028 22.0119 181.983 21.4972 184.163 21.4972C186.342 21.4972 188.297 22.0119 190.028 23.0414C191.758 24.0708 193.104 25.5077 194.066 27.3521C195.027 29.1965 195.508 31.2768 195.508 33.593C195.508 35.9092 195.027 37.9788 194.066 39.8017C193.104 41.6247 191.758 43.0509 190.028 44.0803C188.297 45.1097 186.342 45.6244 184.163 45.6244Z" fill="white"/>
<path d="M230.425 14.38C227.036 14.38 223.944 15.1862 221.149 16.7987C218.354 18.4111 216.164 20.62 214.58 23.4253C212.996 26.2306 212.204 29.3561 212.204 32.802C212.204 36.2478 212.941 39.3734 214.415 42.1787C215.889 44.9839 217.914 47.1817 220.489 48.7722C223.064 50.3626 225.935 51.1577 229.105 51.1577C231.657 51.1577 234.034 50.6276 236.235 49.5674C238.435 48.5071 240.306 47.0271 241.846 45.1275V47.5793C241.846 48.5513 242.165 49.3575 242.804 49.9981C243.442 50.6387 244.245 50.959 245.213 50.959C246.182 50.959 246.984 50.6387 247.623 49.9981C248.261 49.3575 248.58 48.5513 248.58 47.5793V32.802C248.58 29.3561 247.777 26.2306 246.17 23.4253C244.564 20.62 242.385 18.4111 239.634 16.7987C236.884 15.1862 233.814 14.38 230.425 14.38ZM230.425 45.1938C228.224 45.1938 226.233 44.6526 224.45 43.5703C222.668 42.4879 221.26 41.008 220.225 39.1304C219.191 37.2529 218.673 35.1434 218.673 32.802C218.673 30.4606 219.191 28.34 220.225 26.4404C221.26 24.5407 222.668 23.0498 224.45 21.9674C226.233 20.8851 228.224 20.3439 230.425 20.3439C232.626 20.3439 234.617 20.8851 236.4 21.9674C238.182 23.0498 239.579 24.5407 240.592 26.4404C241.604 28.34 242.11 30.4606 242.11 32.802C242.11 35.1434 241.604 37.2529 240.592 39.1304C239.579 41.008 238.182 42.4879 236.4 43.5703C234.617 44.6526 232.626 45.1938 230.425 45.1938ZM262.642 50.8927C263.654 50.8927 264.468 50.5724 265.085 49.9318C265.701 49.2913 266.01 48.485 266.01 47.5131V18.0246C266.01 17.0085 265.701 16.1912 265.085 15.5728C264.468 14.9543 263.654 14.645 262.642 14.645C261.674 14.645 260.871 14.9543 260.232 15.5728C259.594 16.1912 259.275 17.0085 259.275 18.0246V47.5131C259.275 48.485 259.594 49.2913 260.232 49.9318C260.871 50.5724 261.674 50.8927 262.642 50.8927ZM262.642 8.74727C263.83 8.74727 264.854 8.31656 265.712 7.45513C266.57 6.59363 267 5.56651 267 4.3737C267 3.18096 266.57 2.15384 265.712 1.29234C264.854 0.430911 263.83 0.00012207 262.642 0.00012207C261.454 0.00012207 260.431 0.430911 259.573 1.29234C258.714 2.15384 258.285 3.18096 258.285 4.3737C258.285 5.56651 258.714 6.59363 259.573 7.45513C260.431 8.31656 261.454 8.74727 262.642 8.74727Z" fill="white"/>
<path d="M3.35021 51.415C4.29571 51.415 5.08981 51.0916 5.73405 50.4449C6.37829 49.7982 6.70041 49.0007 6.70041 48.0522V32.467H15.9786L27.6398 49.9923C28.284 50.9407 29.2079 51.415 30.4099 51.415C31.2689 51.415 31.978 51.0808 32.5365 50.4126C33.095 49.7443 33.3738 48.9791 33.3738 48.1168C33.3738 47.3408 33.1591 46.651 32.7296 46.0475L22.7925 30.5528C22.7925 30.5528 28.084 28.0976 30.0391 23.5167C32.1132 19.017 32.005 14.0569 31.9177 10.756C31.9177 6.81004 31.9177 4.27143 31.9177 4.27143C31.9177 4.27143 31.8266 0.908691 28.7946 0.908691C25.7635 0.908691 25.8399 4.27143 25.8399 4.27143C25.8399 4.27143 25.8399 6.84586 25.8399 10.756C25.8399 14.177 25.7665 17.3279 24.8048 19.8586C22.6149 25.6238 15.9786 25.9055 15.9786 25.9055H6.70041V4.27143C6.70041 3.32293 6.37829 2.52539 5.73405 1.87867C5.08981 1.23202 4.29571 0.908691 3.35021 0.908691C2.44873 0.908691 1.66467 1.23202 0.9988 1.87867C0.33293 2.52539 0 3.32293 0 4.27143V48.0522C0 49.0007 0.33293 49.7982 0.9988 50.4449C1.66467 51.0916 2.44873 51.415 3.35021 51.415Z" fill="white"/>
</svg>
