<svg width="398" height="106" viewBox="0 0 398 106" fill="none" xmlns="http://www.w3.org/2000/svg">
<path d="M305.031 105.538C305.031 91.1118 316.666 79.4333 331.038 79.4335C316.666 79.4333 305.031 69.129 305.031 37.3226C305.031 69.2664 293.396 79.4333 279.024 79.4333C293.396 79.4333 305.031 91.0431 305.031 105.538Z" fill="#FFD46E"/>
<path d="M345.509 20.6372C340.646 20.6372 336.208 21.7943 332.197 24.1085C328.186 26.4226 325.043 29.5926 322.769 33.6187C320.496 37.6447 319.359 42.1303 319.359 47.0756C319.359 52.0209 320.417 56.5066 322.533 60.5326C324.649 64.5585 327.554 67.7128 331.249 69.9952C334.945 72.2777 339.066 73.4189 343.615 73.4189C347.278 73.4189 350.689 72.6581 353.847 71.1365C357.006 69.6148 359.69 67.4909 361.9 64.7646V68.2834C361.9 69.6782 362.358 70.8353 363.275 71.7546C364.191 72.674 365.344 73.1337 366.733 73.1337C368.123 73.1337 369.275 72.674 370.191 71.7546C371.107 70.8353 371.565 69.6782 371.565 68.2834V47.0756C371.565 42.1303 370.412 37.6447 368.106 33.6187C365.801 29.5926 362.674 26.4226 358.726 24.1085C354.778 21.7943 350.373 20.6372 345.509 20.6372ZM345.509 64.8597C342.351 64.8597 339.493 64.083 336.934 62.5297C334.377 60.9764 332.356 58.8524 330.871 56.1579C329.387 53.4633 328.644 50.4359 328.644 47.0756C328.644 43.7153 329.387 40.672 330.871 37.9458C332.356 35.2195 334.377 33.0798 336.934 31.5264C339.493 29.9731 342.351 29.1964 345.509 29.1964C348.668 29.1964 351.526 29.9731 354.084 31.5264C356.642 33.0798 358.648 35.2195 360.101 37.9458C361.553 40.672 362.279 43.7153 362.279 47.0756C362.279 50.4359 361.553 53.4633 360.101 56.1579C358.648 58.8524 356.642 60.9764 354.084 62.5297C351.526 64.083 348.668 64.8597 345.509 64.8597ZM391.746 73.0385C393.199 73.0385 394.367 72.5788 395.252 71.6595C396.136 70.7402 396.579 69.5832 396.579 68.1883V25.8679C396.579 24.4096 396.136 23.2366 395.252 22.3491C394.367 21.4615 393.199 21.0176 391.746 21.0176C390.356 21.0176 389.204 21.4615 388.287 22.3491C387.372 23.2366 386.914 24.4096 386.914 25.8679V68.1883C386.914 69.5832 387.372 70.7402 388.287 71.6595C389.204 72.5788 390.356 73.0385 391.746 73.0385ZM391.746 12.5535C393.451 12.5535 394.92 11.9353 396.152 10.6991C397.384 9.46268 398 7.98861 398 6.27674C398 4.56498 397.384 3.09091 396.152 1.85452C394.92 0.618248 393.451 0 391.746 0C390.041 0 388.572 0.618248 387.341 1.85452C386.109 3.09091 385.493 4.56498 385.493 6.27674C385.493 7.98861 386.109 9.46268 387.341 10.6991C388.572 11.9353 390.041 12.5535 391.746 12.5535Z" fill="white"/>
<path d="M79.8597 73.7881C84.7658 73.7881 89.1355 72.6954 92.9686 70.5101C96.8016 68.3248 99.7913 65.2931 101.938 61.415C104.084 57.5368 105.158 53.1355 105.158 48.2109C105.158 43.2247 104.069 38.7925 101.892 34.9144C99.7147 31.0362 96.7096 28.0045 92.8766 25.8193C89.0435 23.6339 84.7045 22.5413 79.8597 22.5413C74.953 22.5413 70.5684 23.6339 66.7049 25.8193C62.8414 28.0045 59.8359 31.0362 57.6896 34.9144C55.5434 38.7925 54.4702 43.2247 54.4702 48.2109C54.4702 53.1355 55.5434 57.5368 57.6896 61.415C59.8359 65.2931 62.8414 68.3248 66.7049 70.5101C70.5684 72.6954 74.953 73.7881 79.8597 73.7881ZM79.8597 65.4778C76.7323 65.4778 73.9264 64.739 71.442 63.2617C68.9587 61.7843 67.0108 59.7375 65.6007 57.1213C64.1905 54.5051 63.4855 51.535 63.4855 48.2109C63.4855 44.8867 64.1905 41.9012 65.6007 39.2542C67.0108 36.6073 68.9587 34.5451 71.442 33.0677C73.9264 31.5903 76.7323 30.8516 79.8597 30.8516C82.9874 30.8516 85.7932 31.5903 88.2769 33.0677C90.7608 34.5451 92.6925 36.6073 94.0724 39.2542C95.4523 41.9012 96.1423 44.8867 96.1423 48.2109C96.1423 51.535 95.4523 54.5051 94.0724 57.1213C92.6925 59.7375 90.7608 61.7843 88.2769 63.2617C85.7932 64.739 82.9874 65.4778 79.8597 65.4778ZM142.629 22.4489C139.563 22.4489 136.68 22.9876 133.982 24.0649C131.283 25.1422 128.953 26.6656 126.99 28.6356V27.6198C126.99 26.204 126.561 25.0652 125.702 24.2033C124.844 23.3416 123.709 22.9106 122.299 22.9106C120.95 22.9106 119.83 23.3416 118.941 24.2033C118.052 25.0652 117.607 26.204 117.607 27.6198V68.8019C117.607 70.1562 118.052 71.2796 118.941 72.1722C119.83 73.0647 120.95 73.511 122.299 73.511C123.709 73.511 124.844 73.0648 125.702 72.1722C126.561 71.2796 126.99 70.1562 126.99 68.8019V42.763C126.99 40.547 127.588 38.5463 128.784 36.7611C129.98 34.9759 131.636 33.5602 133.752 32.5136C135.868 31.4672 138.214 30.944 140.789 30.944C145.205 30.944 148.747 32.2212 151.414 34.7759C154.082 37.3305 155.416 41.1009 155.416 46.0871V68.8019C155.416 70.1562 155.861 71.2796 156.75 72.1722C157.639 73.0648 158.758 73.511 160.108 73.511C161.457 73.511 162.576 73.0648 163.465 72.1722C164.355 71.2796 164.799 70.1562 164.799 68.8019V46.0871C164.799 41.1009 163.849 36.838 161.947 33.2985C160.046 29.759 157.409 27.0658 154.036 25.219C150.663 23.3723 146.861 22.4489 142.629 22.4489ZM222.233 1.30396C220.884 1.30396 219.765 1.73482 218.876 2.59665C217.986 3.45848 217.542 4.59728 217.542 6.01304V30.944C215.395 28.2969 212.789 26.2348 209.722 24.7574C206.656 23.28 203.344 22.5413 199.787 22.5413C195.371 22.5413 191.37 23.6494 187.782 25.8655C184.194 28.0815 181.373 31.1441 179.319 35.053C177.264 38.9619 176.237 43.317 176.237 48.1185C176.237 52.92 177.341 57.2752 179.549 61.1841C181.757 65.093 184.808 68.1709 188.702 70.4178C192.596 72.6647 196.905 73.7881 201.627 73.7881C206.349 73.7881 210.627 72.6647 214.46 70.4178C218.293 68.1709 221.329 65.093 223.567 61.1841C225.806 57.2752 226.925 52.92 226.925 48.1185V6.01304C226.925 4.59728 226.496 3.45848 225.637 2.59665C224.778 1.73482 223.644 1.30396 222.233 1.30396ZM201.627 65.4778C198.56 65.4778 195.785 64.7237 193.302 63.2155C190.818 61.7074 188.855 59.6298 187.414 56.9828C185.973 54.3358 185.252 51.3811 185.252 48.1185C185.252 44.856 185.973 41.9166 187.414 39.3004C188.855 36.6841 190.818 34.622 193.302 33.1139C195.785 31.6057 198.56 30.8516 201.627 30.8516C204.693 30.8516 207.468 31.6057 209.952 33.1139C212.436 34.622 214.383 36.6841 215.794 39.3004C217.204 41.9166 217.91 44.856 217.91 48.1185C217.91 51.3811 217.204 54.3358 215.794 56.9828C214.383 59.6298 212.436 61.7074 209.952 63.2155C207.468 64.7237 204.693 65.4778 201.627 65.4778ZM264.764 73.7881C269.671 73.7881 274.04 72.6954 277.873 70.5101C281.706 68.3248 284.696 65.2931 286.843 61.415C288.989 57.5368 290.062 53.1355 290.062 48.2109C290.062 43.2247 288.974 38.7925 286.797 34.9144C284.619 31.0362 281.614 28.0045 277.781 25.8193C273.948 23.6339 269.609 22.5413 264.764 22.5413C259.858 22.5413 255.473 23.6339 251.609 25.8193C247.746 28.0045 244.741 31.0362 242.594 34.9144C240.448 38.7925 239.374 43.2247 239.374 48.2109C239.374 53.1355 240.448 57.5368 242.594 61.415C244.741 65.2931 247.746 68.3248 251.609 70.5101C255.473 72.6954 259.858 73.7881 264.764 73.7881ZM264.764 65.4778C261.637 65.4778 258.831 64.7391 256.347 63.2617C253.863 61.7843 251.916 59.7375 250.506 57.1213C249.095 54.5051 248.39 51.535 248.39 48.2109C248.39 44.8868 249.095 41.9012 250.506 39.2542C251.916 36.6073 253.863 34.5451 256.347 33.0677C258.831 31.5903 261.637 30.8516 264.764 30.8516C267.892 30.8516 270.698 31.5903 273.182 33.0677C275.665 34.5451 277.597 36.6073 278.977 39.2542C280.357 41.9012 281.047 44.8868 281.047 48.2109C281.047 51.535 280.357 54.5051 278.977 57.1213C277.597 59.7375 275.665 61.7843 273.182 63.2617C270.698 64.7392 267.892 65.4778 264.764 65.4778Z" fill="white"/>
<path d="M5.27119 73.7881C6.62813 73.7881 7.76778 73.324 8.69237 72.3959C9.61695 71.4678 10.0792 70.3232 10.0792 68.962V46.5949H23.3948L40.1304 71.7463C41.055 73.1074 42.3809 73.7881 44.1059 73.7881C45.3387 73.7881 46.3564 73.3085 47.1579 72.3495C47.9594 71.3904 48.3596 70.2923 48.3596 69.0548C48.3596 67.9411 48.0514 66.9511 47.4351 66.0849L33.1739 43.8477C33.1739 43.8477 40.7679 40.3242 43.5738 33.7499C46.5504 27.2921 46.3952 20.1737 46.2699 15.4363C46.2699 9.77328 46.2699 6.12999 46.2699 6.12999C46.2699 6.12999 46.1391 1.30396 41.7878 1.30396C37.4376 1.30396 37.5473 6.12999 37.5473 6.12999C37.5473 6.12999 37.5473 9.82469 37.5473 15.4363C37.5473 20.3461 37.442 24.868 36.0618 28.4999C32.9189 36.7738 23.3948 37.1781 23.3948 37.1781H10.0792V6.12999C10.0792 4.76875 9.61695 3.62417 8.69237 2.69601C7.76778 1.76797 6.62813 1.30396 5.27119 1.30396C3.97744 1.30396 2.85219 1.76797 1.89656 2.69601C0.940939 3.62417 0.463135 4.76875 0.463135 6.12999V68.962C0.463135 70.3232 0.940939 71.4678 1.89656 72.3959C2.85219 73.324 3.97744 73.7881 5.27119 73.7881Z" fill="white"/>
</svg>
